<svg width="18" height="18" viewBox="0 0 18 18" fill="none" xmlns="http://www.w3.org/2000/svg">
<path d="M12.1508 2.625C11.4008 1.875 10.4258 1.5 9.52578 1.5C8.62578 1.5 7.57578 1.875 6.90078 2.625L2.55078 6.825C1.05078 8.325 1.05078 10.65 2.55078 12.15C4.05078 13.65 6.37578 13.65 7.87578 12.15L12.1508 7.875C13.5758 6.45 13.5758 4.05 12.1508 2.625ZM11.1008 6.825L9.00078 8.925L6.30078 6.3L3.00078 9.6C3.00078 9 3.15078 8.325 3.67578 7.875L7.95078 3.6C8.32578 3.225 8.92578 3 9.45078 3C9.97578 3 10.5758 3.225 11.0258 3.6C11.9258 4.575 11.9258 5.925 11.1008 6.825ZM14.7008 5.325C14.7008 5.925 14.5508 6.45 14.4008 7.05C15.1508 7.95 15.1508 9.3 14.3258 10.125L12.2258 12.225L11.1008 11.1L9.00078 13.2C8.02578 14.175 6.67578 14.7 5.40078 14.7C5.55078 14.925 5.70078 15.15 5.92578 15.375C7.42578 16.875 9.75078 16.875 11.2508 15.375L15.5258 11.1C17.0258 9.6 17.0258 7.275 15.5258 5.775C15.1508 5.625 14.9258 5.475 14.7008 5.325Z" fill="#001E5C"/>
</svg>
